<svg xmlns="http://www.w3.org/2000/svg" width="136.336" height="126.055" viewBox="0 0 136.336 126.055"><g transform="translate(-3962.566 -832.134) rotate(-16)"><g transform="translate(3673.849 2020.217)"><path d="M4423.287,2787.383l6.126-.425a1.825,1.825,0,0,0,1.613-1.268h0a1.825,1.825,0,0,0-.585-1.966l-4.755-3.885a.844.844,0,0,0-1.339.4h0a.849.849,0,0,0,.074.68l.94,1.619a1.729,1.729,0,0,1-.764,2.432l-1.726.806a.844.844,0,0,0-.447.51l0,0A.845.845,0,0,0,4423.287,2787.383Z" transform="translate(-4422.384 -2779.648)" fill="#36a3b5"/></g><g transform="translate(3572.462 1917.354)" opacity="0.23"><g transform="translate(0 0)"><path d="M3574.954,1919.009a.707.707,0,0,1-.1-.007c-1.107-.156-1.738-.218-1.745-.219a.716.716,0,1,1,.139-1.425c.026,0,.663.065,1.805.226a.716.716,0,0,1-.1,1.424Z" transform="translate(-3572.462 -1917.354)"/></g><g transform="translate(5.366 0.809)"><path d="M3709.39,2028.7a.712.712,0,0,1-.251-.046c-1.172-.44-2.318-.9-3.4-1.352a.716.716,0,0,1,.555-1.32c1.069.449,2.2.9,3.353,1.332a.716.716,0,0,1-.252,1.386Zm-6.7-2.824a.716.716,0,0,1-.307-.069c-1.134-.54-2.234-1.1-3.272-1.668a.716.716,0,1,1,.687-1.256c1.014.554,2.09,1.1,3.2,1.631a.716.716,0,0,1-.308,1.362Zm-6.364-3.495a.713.713,0,0,1-.384-.112c-1.058-.675-2.078-1.382-3.03-2.1a.716.716,0,0,1,.863-1.142c.922.7,1.91,1.382,2.936,2.037a.716.716,0,0,1-.385,1.319Zm-5.776-4.386a.713.713,0,0,1-.482-.187,36.664,36.664,0,0,1-2.607-2.626.716.716,0,1,1,1.065-.956,35.5,35.5,0,0,0,2.506,2.524.716.716,0,0,1-.482,1.245Zm-4.834-5.4a.716.716,0,0,1-.581-.3c-.711-.981-1.39-2.025-2.019-3.1a.716.716,0,0,1,1.236-.722c.6,1.035,1.258,2.039,1.941,2.982a.716.716,0,0,1-.579,1.136Zm-3.669-6.256a.715.715,0,0,1-.647-.41c-.5-1.066-.99-2.206-1.447-3.389a.716.716,0,1,1,1.335-.516c.445,1.151.918,2.259,1.406,3.294a.716.716,0,0,1-.647,1.021Zm-2.636-6.768a.717.717,0,0,1-.681-.5c-.358-1.112-.7-2.26-1.049-3.512a.716.716,0,1,1,1.379-.382c.337,1.215.685,2.377,1.032,3.455a.716.716,0,0,1-.461.9A.708.708,0,0,1,3679.415,1999.574Zm-1.958-7a.717.717,0,0,1-.695-.545c-.271-1.1-.543-2.265-.833-3.554a.716.716,0,0,1,1.4-.315c.288,1.28.559,2.434.828,3.527a.716.716,0,0,1-.7.886Zm-1.607-7.094a.717.717,0,0,1-.7-.567c-.216-1.017-.447-2.116-.747-3.563a.716.716,0,0,1,1.4-.291c.3,1.445.53,2.542.746,3.556a.716.716,0,0,1-.7.865Zm-1.483-7.122a.716.716,0,0,1-.7-.571q-.36-1.743-.742-3.559a.716.716,0,0,1,1.4-.294q.382,1.819.742,3.563a.716.716,0,0,1-.556.846A.752.752,0,0,1,3674.366,1978.356Zm-1.5-7.119a.716.716,0,0,1-.7-.564c-.268-1.237-.524-2.4-.783-3.546a.716.716,0,1,1,1.4-.314c.259,1.153.516,2.317.785,3.558a.716.716,0,0,1-.548.851A.725.725,0,0,1,3672.866,1971.237Zm-1.635-7.09a.716.716,0,0,1-.689-.526c-.316-1.148-.687-2.291-1.1-3.4a.716.716,0,0,1,1.341-.5c.427,1.145.81,2.328,1.138,3.516a.717.717,0,0,1-.691.906Zm-2.535-6.8a.717.717,0,0,1-.647-.407c-.509-1.067-1.074-2.128-1.679-3.152a.716.716,0,1,1,1.232-.728c.626,1.06,1.211,2.158,1.738,3.263a.716.716,0,0,1-.645,1.024Zm-3.69-6.255a.716.716,0,0,1-.584-.3c-.683-.958-1.42-1.909-2.194-2.825a.716.716,0,0,1,1.094-.923c.8.946,1.561,1.928,2.266,2.918a.716.716,0,0,1-.582,1.131Zm-4.683-5.558a.714.714,0,0,1-.51-.213c-.824-.836-1.7-1.663-2.605-2.459a.716.716,0,0,1,.946-1.075c.931.819,1.832,1.669,2.679,2.53a.716.716,0,0,1-.51,1.218Zm-5.451-4.8a.709.709,0,0,1-.436-.148c-.933-.717-1.915-1.425-2.917-2.1a.716.716,0,1,1,.8-1.186c1.027.695,2.032,1.419,2.988,2.154a.716.716,0,0,1-.437,1.283Zm-6.024-4.083a.714.714,0,0,1-.367-.1c-1.012-.606-2.069-1.2-3.14-1.771a.716.716,0,1,1,.672-1.264c1.092.581,2.17,1.188,3.2,1.807a.716.716,0,0,1-.368,1.33Zm-6.427-3.42a.712.712,0,0,1-.305-.069c-1.071-.506-2.181-1-3.3-1.472a.716.716,0,1,1,.556-1.319c1.136.478,2.265.982,3.354,1.5a.716.716,0,0,1-.307,1.363Zm-6.711-2.83a.715.715,0,0,1-.251-.046c-1.114-.417-2.261-.822-3.41-1.2a.716.716,0,0,1,.451-1.359c1.166.387,2.331.8,3.461,1.222a.716.716,0,0,1-.251,1.386Zm-6.914-2.3a.708.708,0,0,1-.2-.029c-1.147-.336-2.322-.658-3.491-.958a.716.716,0,0,1,.355-1.387c1.185.3,2.375.63,3.538.971a.716.716,0,0,1-.2,1.4Zm-7.059-1.809a.7.7,0,0,1-.154-.017c-1.187-.261-2.381-.5-3.549-.717a.716.716,0,1,1,.259-1.408c1.184.218,2.395.462,3.6.727a.716.716,0,0,1-.153,1.415Z" transform="translate(-3617.448 -1924.137)"/></g><g transform="translate(100.123 105.201)"><path d="M4414.2,2801.244a.712.712,0,0,1-.22-.035c-.576-.187-1.15-.376-1.708-.565a.716.716,0,1,1,.458-1.356c.553.187,1.121.375,1.689.559a.716.716,0,0,1-.22,1.4Z" transform="translate(-4411.787 -2799.25)"/></g></g></g></svg>