<svg xmlns="http://www.w3.org/2000/svg" width="29.498" height="29.5" viewBox="0 0 29.498 29.5"><g transform="translate(-2.001 -2)"><path d="M24.613,18.482,14.195,11.189a1.056,1.056,0,0,0-1.208,0L2.451,18.564a1.054,1.054,0,0,0,.6,1.917H24.148a1.054,1.054,0,0,0,.466-2Z" transform="translate(0 0.482)" fill="#fff"/><path d="M22.9,2a7.9,7.9,0,0,0-7.724,9.561l8.8,6.16A7.9,7.9,0,0,0,22.9,2Zm0,7.375a2.634,2.634,0,0,1,.527,5.215v.58a.527.527,0,1,1-1.054,0v-.58a2.638,2.638,0,0,1-2.107-2.581.527.527,0,1,1,1.054,0,1.58,1.58,0,1,0,1.58-1.58,2.634,2.634,0,0,1-.527-5.215v-.58a.527.527,0,1,1,1.054,0v.58a2.638,2.638,0,0,1,2.107,2.581.527.527,0,1,1-1.054,0,1.58,1.58,0,1,0-1.58,1.58Z" transform="translate(0.696)" fill="#fff"/><path d="M4,21v8.429a1.054,1.054,0,0,0,1.054,1.054H7.161V23.107a1.054,1.054,0,0,1,1.054-1.054h3.161a1.054,1.054,0,0,1,1.054,1.054v7.375h9.482a1.054,1.054,0,0,0,1.054-1.054V21Zm15.8,5.268a1.054,1.054,0,0,1-1.054,1.054H15.589a1.054,1.054,0,0,1-1.054-1.054V23.107a1.054,1.054,0,0,1,1.054-1.054H18.75A1.054,1.054,0,0,1,19.8,23.107Z" transform="translate(0.107 1.018)" fill="#fff"/></g></svg>