<svg xmlns="http://www.w3.org/2000/svg" width="25.689" height="25.689" viewBox="0 0 25.689 25.689"><path d="M9.687,13.861l-1.98,1.98a1.076,1.076,0,0,1-1.509.011c-.118-.118-.235-.225-.353-.343a30.413,30.413,0,0,1-2.986-3.5A19.083,19.083,0,0,1,.76,8.36,9.19,9.19,0,0,1,0,4.859,5.537,5.537,0,0,1,.385,2.794,4.927,4.927,0,0,1,1.616,1.006,3.136,3.136,0,0,1,3.843,0,2.011,2.011,0,0,1,4.71.193a1.745,1.745,0,0,1,.717.6l2.483,3.5a3.663,3.663,0,0,1,.428.749,1.692,1.692,0,0,1,.15.653,1.453,1.453,0,0,1-.225.76,3.641,3.641,0,0,1-.6.76L6.85,8.06a.573.573,0,0,0-.171.428.972.972,0,0,0,.032.246c.032.086.064.15.086.214a8.882,8.882,0,0,0,1,1.37c.482.557,1,1.124,1.552,1.691.107.107.225.214.332.321A1.073,1.073,0,0,1,9.687,13.861Z" transform="translate(2.141 2.141)" fill="#fff"/><path d="M13.241,4.592a2.718,2.718,0,0,1-.161.91,2.614,2.614,0,0,1-.107.257,4.416,4.416,0,0,1-.728,1.092A4.826,4.826,0,0,1,10.49,8.113c-.011,0-.021.011-.032.011a5.407,5.407,0,0,1-2.055.4,8.92,8.92,0,0,1-3.489-.781A18.8,18.8,0,0,1,1.231,5.619C.813,5.309.4,5,0,4.667l3.5-3.5a6.014,6.014,0,0,0,.792.514c.054.021.118.054.193.086a.739.739,0,0,0,.268.043.589.589,0,0,0,.439-.182L6,.824a3.284,3.284,0,0,1,.771-.6A1.425,1.425,0,0,1,7.535,0a1.708,1.708,0,0,1,.653.139,4.14,4.14,0,0,1,.749.417l3.543,2.515a1.624,1.624,0,0,1,.589.685A2.2,2.2,0,0,1,13.241,4.592Z" transform="translate(10.276 15.028)" fill="#fff"/><path d="M0,0H25.689V25.689H0Z" transform="translate(25.689 25.689) rotate(180)" fill="none" opacity="0"/></svg>