<svg xmlns="http://www.w3.org/2000/svg" width="27.513" height="37.308" viewBox="0 0 27.513 37.308"><g transform="translate(-67.21)"><path d="M172.32,241.314c-.048-.028-.1-.054-.145-.081v2.688a4.657,4.657,0,1,1-6.558,0v-2.688a6.835,6.835,0,1,0,6.7.077Z" transform="translate(-87.93 -223.655)" fill="#fff"/><path d="M94.279,151.259l-1.3-.962a2.039,2.039,0,0,1,0-3.283l1.3-.962a1.093,1.093,0,0,0,.36-1.3L93.4,141.76a1.093,1.093,0,0,0-1.171-.662l-1.613.241a2.039,2.039,0,0,1-2.32-2.321l.241-1.6a1.093,1.093,0,0,0-.663-1.172c-3.189-1.319-3.191-1.387-3.626-1.3v5.314a9.029,9.029,0,1,1-6.558,0v-5.318c-.431-.085-.346-.054-3.626,1.3a1.093,1.093,0,0,0-.663,1.172l.241,1.6a2.039,2.039,0,0,1-2.319,2.321l-1.613-.241a1.093,1.093,0,0,0-1.171.662l-1.242,2.993a1.093,1.093,0,0,0,.36,1.3l1.3.962a2.039,2.039,0,0,1,0,3.283l-1.3.962a1.093,1.093,0,0,0-.36,1.3l1.242,2.993a1.093,1.093,0,0,0,1.171.662l1.613-.241a2.039,2.039,0,0,1,2.319,2.321l-.241,1.6a1.093,1.093,0,0,0,.663,1.172l3,1.24a1.093,1.093,0,0,0,1.3-.36l.971-1.311a2.039,2.039,0,0,1,3.279,0l.971,1.311a1.093,1.093,0,0,0,1.3.36l3-1.24a1.093,1.093,0,0,0,.663-1.172l-.241-1.6a2.039,2.039,0,0,1,2.319-2.321l1.613.241a1.093,1.093,0,0,0,1.171-.662l1.242-2.993A1.093,1.093,0,0,0,94.279,151.259Z" transform="translate(0 -125.082)" fill="#fff"/><path d="M232.422,4.365,234.206,1.7A1.094,1.094,0,0,0,233.3,0h-8.75a1.093,1.093,0,0,0-1.093,1.093V21.362a2.466,2.466,0,0,0,1.087,4.678,2.467,2.467,0,0,0,1.1-4.679V8.733h7.649a1.094,1.094,0,0,0,.91-1.7Z" transform="translate(-143.582)" fill="#fff"/></g></svg>