<svg xmlns="http://www.w3.org/2000/svg" width="32.462" height="32.462" viewBox="0 0 32.462 32.462"><g transform="translate(-0.004 0)"><g transform="translate(15.284 11.476)"><path d="M249.559,181.005a8.559,8.559,0,1,0,8.623,8.559A8.569,8.569,0,0,0,249.559,181.005Zm.976,13.143c-.008,0-.017,0-.025,0v1.118a.951.951,0,1,1-1.9,0v-1.125a3.911,3.911,0,0,1-1.74-1.225.951.951,0,0,1,1.456-1.222,1.466,1.466,0,0,0,1.559.662.951.951,0,0,0-.325-1.845,2.853,2.853,0,0,1-1.112-5.481c.052-.022.108-.021.161-.04v-1.136a.951.951,0,1,1,1.9,0V185a3.673,3.673,0,0,1,1.4.846.951.951,0,1,1-1.324,1.365,1.3,1.3,0,0,0-1.4-.422.951.951,0,0,0,.37,1.828,2.853,2.853,0,0,1,.976,5.534Z" transform="translate(-241 -181.005)" fill="#fff"/></g><g transform="translate(0.004 20.986)"><g transform="translate(0)"><path d="M.955,331a.95.95,0,0,0-.951.951v9.574a.951.951,0,0,0,.951.951H3.808V331Z" transform="translate(-0.004 -331.003)" fill="#fff"/></g></g><g transform="translate(7.676 -0.001)"><g transform="translate(0 0)"><path d="M135.887,5.936,129.23.229a.947.947,0,0,0-1.237,0l-6.657,5.706a.951.951,0,0,0,.619,1.673h2.853V32.462h6.657a.95.95,0,0,0,.951-.951V29.342a10.442,10.442,0,0,1,0-18.613V7.608h2.853a.951.951,0,0,0,.619-1.673Z" transform="translate(-121.003 0.001)" fill="#fff"/></g></g><g transform="translate(5.774 13.378)"><path d="M91.953,211a.95.95,0,0,0-.951.951v18.133h3.8V211Z" transform="translate(-91.002 -211.005)" fill="#fff"/></g></g></svg>