<svg xmlns="http://www.w3.org/2000/svg" width="25.689" height="25.689" viewBox="0 0 25.689 25.689"><path d="M0,0H25.689V25.689H0Z" fill="none" opacity="0"/><path d="M1.07,0a1.07,1.07,0,1,0,1.07,1.07A1.067,1.067,0,0,0,1.07,0Z" transform="translate(8.724 8.017)" fill="#fff"/><path d="M20.829,3.254C19.93,1.167,17.95,0,15.189,0H6.219A6.217,6.217,0,0,0,0,6.219v8.97c0,2.762,1.167,4.742,3.254,5.641a.543.543,0,0,0,.589-.118L20.712,3.843A.514.514,0,0,0,20.829,3.254ZM9.13,10.961a2.146,2.146,0,0,1-1.509.6,2.193,2.193,0,0,1-1.509-.6C5.02,9.933,3.821,8.3,4.281,6.347a3.333,3.333,0,0,1,3.34-2.558,3.332,3.332,0,0,1,3.34,2.569C11.41,8.3,10.211,9.933,9.13,10.961Z" transform="translate(2.141 2.141)" fill="#fff"/><path d="M12.811,5.63a.488.488,0,0,1-.086.781A6.955,6.955,0,0,1,9.3,7.2H.331a.333.333,0,0,1-.225-.578L6.571.161a.53.53,0,0,1,.76,0Z" transform="translate(8.029 16.345)" fill="#fff"/><path d="M7.214.331V9.3a6.926,6.926,0,0,1-.792,3.425.494.494,0,0,1-.781.086L.161,7.331a.53.53,0,0,1,0-.76L6.626.106A.339.339,0,0,1,7.214.331Z" transform="translate(16.334 8.029)" fill="#fff"/></svg>