<svg xmlns="http://www.w3.org/2000/svg" width="67" height="67" viewBox="0 0 67 67"><g transform="translate(-388 -152)"><g transform="translate(388 152)" fill="#e7f7f9" stroke="#fff" stroke-width="3"><circle cx="33.5" cy="33.5" r="33.5" stroke="none"/><circle cx="33.5" cy="33.5" r="32" fill="none"/></g><g transform="matrix(0.616, -0.788, 0.788, 0.616, 397.591, 188.235)"><path d="M15.6,17.434a1.58,1.58,0,0,1-.116-.565V1A15.938,15.938,0,1,0,27.134,29.128L15.9,17.9a1.446,1.446,0,0,1-.3-.464Z" transform="translate(0 0)" fill="#36a3b5"/><path d="M23.2,21.73a15.884,15.884,0,0,0,3.615-8.753H14.44Z" transform="translate(5.988 5.34)" fill="#36a3b5"/><path d="M13.027,1V15.419H27.446A15.935,15.935,0,0,0,13.027,1Z" transform="translate(5.358 0)" fill="#36a3b5"/></g></g></svg>