<svg xmlns="http://www.w3.org/2000/svg" width="81.9" height="61.425" viewBox="0 0 81.9 61.425"><path d="M43.613-292.8,54.9-285.45,41.775-265.5a15.875,15.875,0,0,1,9.319,5.512A16.029,16.029,0,0,1,54.9-249.225a17.407,17.407,0,0,1-5.119,12.6,17.061,17.061,0,0,1-12.731,5.25,17.979,17.979,0,0,1-12.731-5.513A17.723,17.723,0,0,1,19.2-249.75a24.025,24.025,0,0,1,1.313-7.612,28.785,28.785,0,0,1,4.2-7.875Zm46.2,0,11.287,7.35L87.975-265.5a15.875,15.875,0,0,1,9.319,5.512,16.029,16.029,0,0,1,3.806,10.762,17.407,17.407,0,0,1-5.119,12.6,17.061,17.061,0,0,1-12.731,5.25,17.979,17.979,0,0,1-12.731-5.513A17.723,17.723,0,0,1,65.4-249.75a24.025,24.025,0,0,1,1.313-7.612,28.785,28.785,0,0,1,4.2-7.875Z" transform="translate(-19.2 292.8)" fill="#585858" opacity="0.1"/></svg>