<svg xmlns="http://www.w3.org/2000/svg" width="28.109" height="28.226" viewBox="0 0 28.109 28.226"><path d="M25.94,39.536l.1,3.8a.447.447,0,0,1-.228.406.453.453,0,0,1-.227.061.448.448,0,0,1-.234-.066L22.1,41.753a.218.218,0,0,1,0-.375l.965-.557A13.74,13.74,0,0,1,42.431,22.5l.026.016.023.02c.6.52.6,1.1.334,1.411a.776.776,0,0,1-.605.267H42.2a1.4,1.4,0,0,1-.86-.365A12.019,12.019,0,0,0,24.561,39.961l1.053-.608a.218.218,0,0,1,.327.183ZM30.415,34.1a4.88,4.88,0,1,1,4.88,4.88A4.88,4.88,0,0,1,30.415,34.1Zm5.441,1.833a1.314,1.314,0,0,1-1.107.054.747.747,0,0,1-.446-.444.419.419,0,1,0-.806.231,1.565,1.565,0,0,0,.926.986,2.075,2.075,0,0,0,.453.132v.572a.419.419,0,0,0,.838,0v-.593a2.116,2.116,0,0,0,.539-.2,1.59,1.59,0,0,0,.833-1.678,2.024,2.024,0,0,0-1.921-1.487.8.8,0,0,1-.715-.483.619.619,0,0,1,.141-.628,1.049,1.049,0,0,1,.782-.28,1.1,1.1,0,0,1,.814.413A.419.419,0,0,0,36.837,32a1.929,1.929,0,0,0-1.123-.685v-.58a.419.419,0,1,0-.838,0v.592a1.8,1.8,0,0,0-.886.484,1.465,1.465,0,0,0-.333,1.485,1.618,1.618,0,0,0,1.394,1.04c.694.095,1.135.388,1.21.8a.764.764,0,0,1-.4.791ZM47.474,27.74l.927-.572a.233.233,0,0,0-.006-.4l-3.28-1.879a.449.449,0,0,0-.225-.061.455.455,0,0,0-.239.069.446.446,0,0,0-.215.412l.208,3.774a.233.233,0,0,0,.355.186l1.013-.625A12.019,12.019,0,0,1,28.836,44.688a.973.973,0,0,0-.623-.248.811.811,0,0,0-.277.049A.865.865,0,0,0,27.707,46l.016.014.017.012A13.675,13.675,0,0,0,35.7,48.566h0A13.747,13.747,0,0,0,47.474,27.74ZM28.948,42.076l-1.622-1.622a1.183,1.183,0,0,1-.294-1.205,4.63,4.63,0,0,1,.525-1.091.369.369,0,0,0,.016-.358,8.555,8.555,0,0,1-.352-.847.356.356,0,0,0-.26-.229,4.416,4.416,0,0,1-1.168-.421,1.188,1.188,0,0,1-.627-1.051V32.958a1.183,1.183,0,0,1,.644-1.06,4.631,4.631,0,0,1,1.142-.4.369.369,0,0,0,.264-.242,8.542,8.542,0,0,1,.351-.847.352.352,0,0,0-.021-.346,4.415,4.415,0,0,1-.528-1.124,1.188,1.188,0,0,1,.3-1.186L28.94,26.13a1.183,1.183,0,0,1,1.205-.294,4.632,4.632,0,0,1,1.091.525.369.369,0,0,0,.358.016,8.539,8.539,0,0,1,.847-.352.356.356,0,0,0,.229-.26,4.416,4.416,0,0,1,.421-1.168,1.189,1.189,0,0,1,1.052-.627h2.293a1.183,1.183,0,0,1,1.06.644,4.633,4.633,0,0,1,.4,1.142.368.368,0,0,0,.242.264,8.569,8.569,0,0,1,.847.351.352.352,0,0,0,.346-.021,4.418,4.418,0,0,1,1.124-.528,1.188,1.188,0,0,1,1.187.3l1.622,1.622a1.183,1.183,0,0,1,.294,1.205,4.63,4.63,0,0,1-.525,1.091.369.369,0,0,0-.016.358,8.516,8.516,0,0,1,.352.847.356.356,0,0,0,.26.229,4.418,4.418,0,0,1,1.168.421,1.189,1.189,0,0,1,.627,1.052V35.24a1.183,1.183,0,0,1-.644,1.06,4.632,4.632,0,0,1-1.142.4.368.368,0,0,0-.264.242,8.568,8.568,0,0,1-.351.847.352.352,0,0,0,.021.346,4.418,4.418,0,0,1,.528,1.124,1.188,1.188,0,0,1-.3,1.186L41.65,42.068a1.182,1.182,0,0,1-1.205.294,4.63,4.63,0,0,1-1.091-.525A.369.369,0,0,0,39,41.821a8.54,8.54,0,0,1-.847.352.356.356,0,0,0-.229.26A4.417,4.417,0,0,1,37.5,43.6a1.189,1.189,0,0,1-1.052.627H34.154a1.183,1.183,0,0,1-1.06-.644,4.633,4.633,0,0,1-.4-1.142.369.369,0,0,0-.242-.264,8.545,8.545,0,0,1-.847-.351.352.352,0,0,0-.346.021,4.415,4.415,0,0,1-1.124.528A1.188,1.188,0,0,1,28.948,42.076Zm6.347-2.259A5.718,5.718,0,1,0,29.576,34.1,5.718,5.718,0,0,0,35.295,39.817Z" transform="translate(-21.317 -20.339)" fill="#fff"/></svg>