<svg xmlns="http://www.w3.org/2000/svg" width="33.949" height="29.688" viewBox="0 0 33.949 29.688"><g transform="translate(0.001)"><path d="M242.989.995a.995.995,0,0,0-1.989,0V5.256a.995.995,0,0,0,1.989,0Zm0,0" transform="translate(-225.02)" fill="#fff"/><path d="M147.02,52.028a.995.995,0,0,0,1.406-1.407L146.3,48.49a.995.995,0,0,0-1.406,1.407Zm0,0" transform="translate(-135.01 -45.003)" fill="#fff"/><path d="M306.261,52.319a.991.991,0,0,0,.7-.291l2.131-2.131a.995.995,0,1,0-1.407-1.406l-2.131,2.131a.995.995,0,0,0,.7,1.7Zm0,0" transform="translate(-285.025 -45.003)" fill="#fff"/><path d="M14.1,141.3l-.03.025-4.3,3.686a2.2,2.2,0,0,1-1.433.53H5.254A5.252,5.252,0,0,0,0,150.795v9.589a1,1,0,0,0,.995.995H9.517a1,1,0,0,0,.995-.995v-9.131l5.061-4.338a1.166,1.166,0,0,0,.407-.885v-3.819A1.161,1.161,0,0,0,14.1,141.3Zm0,0" transform="translate(0 -131.691)" fill="#fff"/><path d="M281.725,145.54h-3.08a2.2,2.2,0,0,1-1.433-.53l-4.3-3.686-.03-.025a1.161,1.161,0,0,0-1.883.912v3.819a1.166,1.166,0,0,0,.407.885l5.061,4.338v9.13a1,1,0,0,0,.995.995h8.523a1,1,0,0,0,.995-.995v-9.589A5.252,5.252,0,0,0,281.725,145.54Zm0,0" transform="translate(-253.031 -131.691)" fill="#fff"/><path d="M24.448,86.655a4.191,4.191,0,1,0-4.191,4.191A4.2,4.2,0,0,0,24.448,86.655Zm0,0" transform="translate(-15.002 -76.997)" fill="#fff"/><path d="M377.917,86.655a4.191,4.191,0,1,0-4.191,4.191A4.2,4.2,0,0,0,377.917,86.655Zm0,0" transform="translate(-345.033 -76.997)" fill="#fff"/></g></svg>