<svg xmlns="http://www.w3.org/2000/svg" xmlns:xlink="http://www.w3.org/1999/xlink" width="329.96" height="228.715" viewBox="0 0 329.96 228.715"><defs><linearGradient id="a" y1="0.5" x2="1" y2="0.5" gradientUnits="objectBoundingBox"><stop offset="0" stop-color="#36a3b5"/><stop offset="1" stop-color="#0e727c"/></linearGradient></defs><g transform="translate(-653.39 -467.165)"><path d="M653.39,688.44l4.78-3.72c2.48,3.83,5.8,5.91,10.08,5.91,4.78,0,7.99-2.98,7.99-7.04,0-4.5-4.56-6.02-9.51-7.54-5.57-1.8-11.54-4.05-11.54-11.48,0-6.19,5.52-11.03,12.95-11.03a15.858,15.858,0,0,1,13,5.97l-4.45,3.32a9.568,9.568,0,0,0-8.56-4.45c-4.45,0-7.37,2.53-7.37,6.08,0,4.33,4.56,5.57,9.34,7.21,5.69,1.97,11.76,4.28,11.76,11.93,0,6.31-5.24,12.16-13.57,12.16A17.561,17.561,0,0,1,653.39,688.44Z" fill="#36a3b5"/><path d="M687.22,678.76c0-9.85,7.43-17.17,16.77-17.17a14.81,14.81,0,0,1,12.1,6.14v-5.46h5.29V695.2h-5.29v-5.57a12.971,12.971,0,0,1-5.35,4.62,15.308,15.308,0,0,1-6.75,1.63A16.77,16.77,0,0,1,687.22,678.76Zm29.28-.06a11.938,11.938,0,1,0-11.99,12.21A12.016,12.016,0,0,0,716.5,678.7Z" fill="#36a3b5"/><path d="M726.23,662.27h5.8l9.85,25.95,9.74-25.95h5.69L744.48,695.2h-5.35Z" fill="#36a3b5"/><path d="M759.78,678.93c0-9.79,7.32-17.34,17.11-17.34,9.63,0,16.89,6.81,16.89,16.72v2.25H765.02c.73,6.25,5.52,10.53,12.16,10.53a11.515,11.515,0,0,0,10.98-6.98l4.56,2.42c-2.98,5.85-7.94,9.34-15.54,9.34C766.65,695.87,759.78,688.55,759.78,678.93Zm5.52-3.15h23.02c-.96-5.85-5.07-9.4-11.43-9.4A11.729,11.729,0,0,0,765.3,675.78Z" fill="#36a3b5"/><path d="M799.81,662.27h5.29V667c1.63-3.21,4.39-4.78,8.33-4.78a12.494,12.494,0,0,1,6.42,1.69l-2.25,5.01a7.619,7.619,0,0,0-5.01-1.46c-4.45,0-7.43,2.7-7.43,9.18,0,.34-.11,5.01.06,9.51v9.06h-5.4V662.27Z" fill="#36a3b5"/><path d="M822.36,688.39l6.98-5.52c2.08,3.6,5.23,5.57,9.01,5.57,4.05,0,6.25-2.65,6.25-5.52,0-3.43-4.22-4.56-8.56-5.91-5.57-1.8-11.65-3.88-11.65-11.71,0-6.59,5.74-11.76,13.62-11.76a17.625,17.625,0,0,1,13.79,5.97l-6.31,4.78a8.349,8.349,0,0,0-7.43-3.94c-3.77,0-5.74,2.03-5.74,4.67,0,3.32,3.88,4.28,8.39,5.8,5.57,1.8,11.88,4.28,11.88,12.16,0,6.47-5.18,12.78-14.19,12.78A20.388,20.388,0,0,1,822.36,688.39Z" fill="#282828"/><path d="M852.65,662.27h5.63v-5.01l7.66-5.23v10.25h6.7v6.81h-6.7v12.33c0,5.74.84,6.64,6.7,6.64v7.15h-1.07c-10.19,0-13.28-3.27-13.28-13.73V669.1h-5.63v-6.83Z" fill="#282828"/><path d="M876.29,662.27h7.54v4.9q2.28-4.905,8.44-4.9a11.551,11.551,0,0,1,5.8,1.41l-2.87,7.21a7.6,7.6,0,0,0-4.56-1.29c-4.45,0-6.76,2.36-6.76,8.05v17.56h-7.6V662.27Z" fill="#282828"/><path d="M904.38,649.43a4.755,4.755,0,1,1,0,9.51c-3.1,0-4.78-1.86-4.78-4.73A4.483,4.483,0,0,1,904.38,649.43Zm-3.83,12.84h7.66V695.2h-7.66Z" fill="#282828"/><path d="M911.53,678.76c0-10.92,7.99-17.17,16.32-17.17a13.63,13.63,0,0,1,10.53,4.56V653.54h7.66V695.2h-7.6v-4.28a13.469,13.469,0,0,1-10.7,4.95C919.8,695.87,911.53,689.57,911.53,678.76Zm27.3-.11a9.908,9.908,0,1,0-19.81,0,9.977,9.977,0,0,0,9.96,10.25C934.66,688.89,938.83,684.33,938.83,678.65Z" fill="#282828"/><path d="M949.3,678.82a16.983,16.983,0,0,1,17.11-17.22,16.448,16.448,0,0,1,16.94,16.94v2.87H956.56c1.07,4.67,4.73,7.77,10.13,7.77a9.59,9.59,0,0,0,9.12-5.8l6.25,3.6c-2.87,5.35-7.94,8.89-15.37,8.89C956.33,695.87,949.3,688.33,949.3,678.82Zm7.65-3.78h18.69c-1.13-4.45-4.5-6.75-9.23-6.75A9.688,9.688,0,0,0,956.95,675.04Z" fill="#282828"/><path d="M897.79,547.44a80.425,80.425,0,0,0-2.05-18.47c-.49-2.11-1.08-4.26-1.8-6.43l.29.56c-15.84-49-62.47-55.1-63.92-55.27a.158.158,0,0,0-.04-.01s-76.65-12.28-97.41,69.46c0,0-4.24,32.62,8.47,53.37l.01.01c.01.02.04.04.07.09a46.373,46.373,0,0,0,4.38,4.26c.02.01.03.03.05.04,6.2,5.33,18.45,13.54,34.56,12.97a19.922,19.922,0,0,1-3.32-1.01c-7.51-2.86-25.61-13.32-31.93-48.55,0,0-9.32-47.86,38.11-75.81,0,0,55.91-30.08,95.71,19.05,0,0,9.79,9.96,14.93,27.49a75.958,75.958,0,0,1,3.06,20.02Z" fill="#36a3b5"/><path d="M741.34,590.66s11.65,15.78,43.2,16.94c0,0,6.25.74,10.59-.32l7.41-2.54s4.45-2.33,8.47-2.22a97.7,97.7,0,0,1,14.51.21s6.35,1.59,16.31-1.8c0,0,11.12-2.96,13.98-.74,0,0,6.04,5.82-2.96,10.69,0,0-3.18,1.91-10.06,2.12,0,0-6.14.53-8.79,4.13,0,0,5.19,4.66,15.99.53,0,0,14.08-4.66,27.95-21.71,0,0,3.81-4.98,7.41.11,0,0,5.61,6.99-22.13,26.79,0,0-47.33,32.19-96.88-1.06C766.33,621.79,750.02,609.5,741.34,590.66Z" fill="url(#a)"/><path d="M779.56,601.77s13.02,1.59,20.33-1.91c0,0,5.4-3.18,16.2-3.18,0,0,18.42,2.54,27.95-2.54,0,0,12.71-2.86,15.25,3.49,0,0,14.61-15.25-11.44-50.51,0,0-10.8-16.52-24.78-22.55,0,0,.24,1.83-.24,2.14s-3.57-1.51-3.81-2.46a5.15,5.15,0,0,0-4.84,1.75l-6.04,8.66,4.61-9.21-.16-.79s-15.41,6.59-32.56,33.75C780.04,558.42,762.09,583.19,779.56,601.77Z" fill="#36a3b5"/><path d="M807.99,522.68l1.91-.64,2.06-1.43,8.1.48,5.88-8.26-2.86,8.74s2.86,1.75,4.76.64l12.55-15.09s2.86-5.72-4.76-9.21l-4.76,6.83a33.484,33.484,0,0,1,2.06-6.83s1.27-4.13-3.18-4.29l-21.6.48s-3.49-.16-2.22,4.45l1.27,4.29s-3.34-2.54-3.97-5.08a11.322,11.322,0,0,0-8.74,8.1s2.38,5.08,14.14,17.31Z" fill="#36a3b5"/><path d="M825.5,568.83a6.518,6.518,0,0,0-2.85-5.68,16.948,16.948,0,0,0-4.99-2.1c-3.6-1.09-4.65-1.67-4.65-3.39,0-1.92,2.49-2.6,4.63-2.6a8.884,8.884,0,0,1,4.45,1.2l2.2-3.41a12.643,12.643,0,0,0-5.4-1.78v-3.19h-4.06v3.41c-3.61.79-5.89,3.15-5.89,6.37a6.106,6.106,0,0,0,2.78,5.3,17.109,17.109,0,0,0,4.76,1.98c3.53,1.07,4.97,1.72,4.95,3.87v.02c0,1.81-2.4,2.45-4.45,2.45a7.65,7.65,0,0,1-5.25-2.11l-2.95,2.79a11.385,11.385,0,0,0,6.05,3.18v3.32h4.06v-3.25C822.92,574.63,825.5,572.21,825.5,568.83Z" fill="#fff"/><path d="M895.47,537.9l9.09-1.1-3.6,8.41-3.59,8.42-5.49-7.32-5.49-7.32Z" fill="#36a3b5"/></g></svg>