<svg xmlns="http://www.w3.org/2000/svg" width="307.99" height="213.481" viewBox="0 0 307.99 213.481"><g transform="translate(-116.83 -468.829)"><path d="M344.95,543.76a74.234,74.234,0,0,0-1.92-17.24q-.675-2.955-1.68-6l.27.52c-14.79-45.73-58.31-51.43-59.66-51.59l-.03-.01s-71.55-11.46-90.92,64.84c0,0-3.96,30.44,7.91,49.82l.01.01a.378.378,0,0,0,.07.08,42.942,42.942,0,0,0,4.09,3.97c.02.01.03.03.04.03,5.79,4.97,17.22,12.64,32.26,12.11a17.98,17.98,0,0,1-3.1-.94c-7.01-2.67-23.91-12.43-29.81-45.31,0,0-8.7-44.67,35.58-70.76,0,0,52.18-28.07,89.34,17.78,0,0,9.14,9.3,13.94,25.66a71.554,71.554,0,0,1,2.86,18.69Z" fill="#fff"/><path d="M198.92,584.09s10.87,14.73,40.32,15.81c0,0,5.83.69,9.88-.3l6.92-2.37s4.15-2.17,7.91-2.08a91.489,91.489,0,0,1,13.54.2s5.93,1.48,15.22-1.68c0,0,10.38-2.77,13.05-.69,0,0,5.63,5.44-2.77,9.98,0,0-2.96,1.78-9.39,1.98,0,0-5.73.49-8.2,3.85,0,0,4.84,4.35,14.92.49,0,0,13.14-4.35,26.09-20.26,0,0,3.56-4.65,6.92.1,0,0,5.24,6.52-20.66,25,0,0-44.18,30.04-90.43-.99C222.24,613.15,207.02,601.68,198.92,584.09Z" fill="#fff"/><path d="M234.59,594.47s12.16,1.48,18.98-1.78c0,0,5.04-2.96,15.12-2.96,0,0,17.2,2.37,26.09-2.37,0,0,11.86-2.67,14.23,3.26,0,0,13.64-14.23-10.67-47.14,0,0-10.08-15.42-23.13-21.05,0,0,.22,1.7-.22,2s-3.34-1.41-3.56-2.3a4.835,4.835,0,0,0-4.52,1.63l-5.63,8.08,4.3-8.6-.15-.74s-14.38,6.15-30.39,31.5C235.04,554,218.29,577.12,234.59,594.47Z" fill="#fff"/><path d="M261.13,520.64l1.78-.59,1.93-1.33,7.56.44,5.49-7.71-2.67,8.15s2.67,1.63,4.45.59l11.71-14.08s2.67-5.34-4.45-8.6l-4.45,6.37a30.334,30.334,0,0,1,1.93-6.37s1.19-3.85-2.96-4l-20.16.44s-3.26-.15-2.08,4.15l1.19,4s-3.11-2.37-3.71-4.74a10.554,10.554,0,0,0-8.15,7.56s2.22,4.74,13.19,16.16Z" fill="#fff"/><path d="M277.48,563.72a6.112,6.112,0,0,0-2.66-5.31,15.743,15.743,0,0,0-4.66-1.96c-3.36-1.02-4.34-1.56-4.34-3.16,0-1.79,2.33-2.43,4.32-2.43a8.34,8.34,0,0,1,4.16,1.12l2.06-3.18a11.7,11.7,0,0,0-5.04-1.66v-2.97h-3.79v3.18c-3.37.74-5.49,2.94-5.49,5.95a5.7,5.7,0,0,0,2.59,4.95,15.977,15.977,0,0,0,4.44,1.85c3.3,1,4.64,1.6,4.62,3.62v.01c0,1.69-2.24,2.29-4.16,2.29a7.124,7.124,0,0,1-4.9-1.97l-2.76,2.61a10.576,10.576,0,0,0,5.65,2.97v3.1h3.79v-3.04C275.06,569.13,277.47,566.88,277.48,563.72Z" fill="#36a3b5"/><path d="M342.79,534.84l8.48-1.02-3.36,7.85-3.35,7.86-5.12-6.83-5.13-6.83Z" fill="#fff"/><path d="M116.83,675.36l4.47-3.47c2.31,3.57,5.41,5.52,9.4,5.52,4.47,0,7.46-2.78,7.46-6.57,0-4.2-4.26-5.62-8.88-7.04-5.2-1.68-10.77-3.78-10.77-10.72,0-5.78,5.15-10.3,12.08-10.3a14.854,14.854,0,0,1,12.14,5.57l-4.15,3.1a8.942,8.942,0,0,0-7.99-4.15c-4.15,0-6.88,2.36-6.88,5.67,0,4.05,4.26,5.2,8.72,6.73,5.31,1.84,10.98,3.99,10.98,11.14,0,5.89-4.89,11.35-12.66,11.35A16.341,16.341,0,0,1,116.83,675.36Z" fill="#fff"/><path d="M148.4,666.33c0-9.19,6.94-16.03,15.66-16.03a13.842,13.842,0,0,1,11.3,5.73v-5.1h4.94v30.74h-4.94v-5.2a12.129,12.129,0,0,1-4.99,4.31,14.255,14.255,0,0,1-6.31,1.52A15.641,15.641,0,0,1,148.4,666.33Zm27.33-.05a11.143,11.143,0,1,0-11.19,11.4A11.218,11.218,0,0,0,175.73,666.28Z" fill="#fff"/><path d="M184.82,650.93h5.41l9.19,24.22,9.09-24.22h5.31l-11.98,30.74h-4.99Z" fill="#fff"/><path d="M216.13,666.49a15.752,15.752,0,0,1,15.97-16.18c8.98,0,15.76,6.36,15.76,15.61v2.1H221.01c.68,5.83,5.15,9.83,11.35,9.83a10.749,10.749,0,0,0,10.25-6.52l4.26,2.26c-2.78,5.46-7.41,8.72-14.5,8.72C222.54,682.3,216.13,675.47,216.13,666.49Zm5.15-2.95h21.49c-.89-5.46-4.73-8.77-10.67-8.77A10.955,10.955,0,0,0,221.28,663.54Z" fill="#fff"/><path d="M253.49,650.93h4.94v4.41c1.52-3,4.1-4.47,7.78-4.47a11.618,11.618,0,0,1,5.99,1.58l-2.1,4.68a7.062,7.062,0,0,0-4.68-1.37c-4.15,0-6.94,2.52-6.94,8.56,0,.32-.11,4.68.05,8.88v8.46h-5.04V650.93Z" fill="#fff"/><path d="M274.55,675.31l6.52-5.15a9.519,9.519,0,0,0,8.41,5.2c3.78,0,5.83-2.47,5.83-5.15,0-3.21-3.94-4.26-7.99-5.52-5.2-1.68-10.88-3.63-10.88-10.93,0-6.15,5.36-10.98,12.71-10.98a16.453,16.453,0,0,1,12.87,5.57l-5.89,4.47a7.813,7.813,0,0,0-6.94-3.68c-3.52,0-5.36,1.89-5.36,4.36,0,3.1,3.63,3.99,7.83,5.41,5.2,1.68,11.09,3.99,11.09,11.35,0,6.04-4.83,11.93-13.24,11.93A18.987,18.987,0,0,1,274.55,675.31Z" fill="#fff"/><path d="M302.81,650.93h5.25v-4.68l7.15-4.89v9.56h6.25v6.36h-6.25v11.51c0,5.36.79,6.2,6.25,6.2v6.67h-1c-9.51,0-12.4-3.05-12.4-12.82V657.28h-5.25Z" fill="#fff"/><path d="M324.88,650.93h7.04v4.57q2.13-4.575,7.88-4.57a10.909,10.909,0,0,1,5.41,1.31l-2.68,6.73a7.107,7.107,0,0,0-4.26-1.21c-4.15,0-6.31,2.21-6.31,7.51v16.39h-7.09V650.93Z" fill="#fff"/><path d="M351.1,638.95a4.169,4.169,0,0,1,4.47,4.47,4.123,4.123,0,0,1-4.47,4.41c-2.89,0-4.47-1.73-4.47-4.41A4.2,4.2,0,0,1,351.1,638.95Zm-3.57,11.98h7.15v30.74h-7.15Z" fill="#fff"/><path d="M357.77,666.33c0-10.19,7.46-16.03,15.24-16.03a12.7,12.7,0,0,1,9.82,4.26V642.79h7.15v38.88h-7.09v-3.99a12.585,12.585,0,0,1-9.98,4.62C365.5,682.3,357.77,676.42,357.77,666.33Zm25.49-.11a9.252,9.252,0,1,0-18.5,0,9.311,9.311,0,0,0,9.3,9.56A9.217,9.217,0,0,0,383.26,666.22Z" fill="#fff"/><path d="M393.03,666.38A15.862,15.862,0,0,1,409,650.3a15.36,15.36,0,0,1,15.82,15.82v2.68H399.81c1,4.36,4.41,7.25,9.46,7.25a8.95,8.95,0,0,0,8.51-5.41l5.83,3.36c-2.68,4.99-7.41,8.3-14.34,8.3C399.6,682.3,393.03,675.26,393.03,666.38Zm7.14-3.52h17.44c-1.05-4.15-4.2-6.3-8.62-6.3A9.036,9.036,0,0,0,400.17,662.86Z" fill="#fff"/></g></svg>