<svg xmlns="http://www.w3.org/2000/svg" width="25.689" height="25.689" viewBox="0 0 25.689 25.689"><path d="M0,0H25.689V25.689H0Z" fill="none" opacity="0"/><path d="M16.056,0H5.352C2.141,0,0,1.606,0,5.352v7.493C0,16.591,2.141,18.2,5.352,18.2h10.7c3.211,0,5.352-1.606,5.352-5.352V5.352C21.407,1.606,19.267,0,16.056,0Zm.5,6.519-3.35,2.676a4.132,4.132,0,0,1-5.009,0L4.849,6.519A.823.823,0,0,1,4.72,5.384a.8.8,0,0,1,1.124-.128l3.35,2.676a2.554,2.554,0,0,0,3.008,0l3.35-2.676a.79.79,0,0,1,1.124.128A.812.812,0,0,1,16.559,6.519Z" transform="translate(2.141 3.746)" fill="#fff"/></svg>